<?xml version="1.0" encoding="iso-8859-1"?>
<!-- Generator: Adobe Illustrator 19.1.0, SVG Export Plug-In . SVG Version: 6.00 Build 0)  -->
<svg xmlns="http://www.w3.org/2000/svg" xmlns:xlink="http://www.w3.org/1999/xlink" version="1.1" id="svgIcon" x="0px" y="0px" viewBox="0 0 512 512" style="enable-background:new 0 0 512 512;" xml:space="preserve" width="20px" height="10px">
<g>
	<g>
		<path d="M161.391,356.173h300.52c8.163,0,15.125-5.902,16.467-13.945l33.391-200.347c1.696-10.223-6.19-19.446-16.467-19.446    H135.01l-11.984-59.901c-4.662-23.337-25.309-40.272-49.097-40.272H16.696C7.473,22.262,0,29.74,0,38.957    c0,9.217,7.473,16.696,16.696,16.696h57.234c7.924,0,14.805,5.641,16.358,13.424l14.582,72.913    c0.049,0.294,0.109,0.577,0.174,0.869l13.274,66.374c0.006,0.028,0.011,0.056,0.017,0.083l13.333,66.667    c0.01,0.048,0.019,0.097,0.029,0.146l10.129,50.644c-17.921,7.633-30.521,25.416-30.521,46.095    c0,27.619,22.468,50.087,50.087,50.087h19.772c-1.871,5.248-3.076,10.813-3.076,16.696c0,27.619,22.468,50.087,50.087,50.087    c27.619,0,50.087-22.468,50.087-50.087c0-5.882-1.205-11.448-3.076-16.696h72.936c-1.871,5.248-3.076,10.813-3.076,16.696    c0,27.619,22.468,50.087,50.087,50.087c27.619,0,50.087-22.468,50.087-50.087c0-5.882-1.205-11.448-3.076-16.696h19.771    c9.223,0,16.696-7.479,16.696-16.696c0-9.217-7.473-16.696-16.696-16.696h-300.52c-9.206,0-16.696-7.49-16.696-16.696    S152.185,356.173,161.391,356.173z M244.869,322.782h-69.793l-6.677-33.391h76.47V322.782z M244.869,256h-83.147l-6.677-33.391    h89.824V256z M378.433,155.827h97.163l-5.565,33.391h-91.598V155.827z M378.433,222.609h86.032L458.9,256h-80.467V222.609z     M378.433,289.391h74.902l-5.565,33.391h-69.337V289.391z M278.26,155.827h66.782v33.391H278.26V155.827z M278.26,222.609h66.782    V256H278.26V222.609z M278.26,289.391h66.782v33.391H278.26V289.391z M141.69,155.827h103.179v33.391h-96.502L141.69,155.827z" fill="#FFFFFF"/>
	</g>
</g>
<g>
</g>
<g>
</g>
<g>
</g>
<g>
</g>
<g>
</g>
<g>
</g>
<g>
</g>
<g>
</g>
<g>
</g>
<g>
</g>
<g>
</g>
<g>
</g>
<g>
</g>
<g>
</g>
<g>
</g>
</svg>
